<svg xmlns="http://www.w3.org/2000/svg" xmlns:xlink="http://www.w3.org/1999/xlink" width="500" zoomAndPan="magnify" viewBox="0 0 375 374.999991" height="500" preserveAspectRatio="xMidYMid meet" version="1.0"><defs><clipPath id="aaf062bef4"><path d="M 12 35.625 L 362 35.625 L 362 338 L 12 338 Z M 12 35.625 " clip-rule="nonzero"/></clipPath></defs><g clip-path="url(#aaf062bef4)"><path fill="#ffffff" d="M 321.746094 337.984375 L 318.746094 337.558594 C 318.746094 337.558594 321.957031 332.632812 331.667969 311.144531 C 341.375 289.65625 332.023438 283.730469 323.316406 286.730469 C 328.953125 274.308594 311.679688 274.878906 308.464844 278.019531 C 305.398438 268.097656 307.894531 267.953125 294.117188 269.238281 C 280.339844 270.453125 220.300781 337.484375 220.300781 337.484375 C 220.300781 337.484375 85.09375 337.914062 33.550781 337.914062 C 21.203125 323.066406 8.851562 300.578125 13.207031 289.871094 C 17.632812 279.234375 30.695312 274.734375 30.695312 274.734375 C 30.695312 274.734375 28.625 273.308594 25.769531 252.535156 C 25.058594 183.789062 56.324219 162.300781 85.523438 137.886719 C 94.515625 93.339844 128.425781 46.652344 147.558594 35.945312 C 172.542969 54.003906 203.882812 107.332031 203.882812 107.332031 L 244.21875 117.898438 C 244.21875 117.898438 292.691406 64.5 314.320312 53.789062 C 334.453125 72.707031 341.375 101.476562 344.445312 119.253906 C 351.511719 160.800781 344.445312 183.214844 344.445312 183.214844 C 344.445312 183.214844 361.007812 209.773438 361.007812 247.535156 C 361.007812 268.597656 358.4375 289.871094 346.015625 310.5 C 339.878906 320.710938 321.746094 337.984375 321.746094 337.984375 Z M 248.785156 179.003906 C 242.074219 176.71875 228.226562 198.777344 240.71875 195.710938 C 253.285156 192.640625 255.496094 181.289062 248.785156 179.003906 Z M 248.785156 179.003906 " fill-opacity="1" fill-rule="nonzero"/></g><path fill="#ef5454" d="M 336.949219 104.90625 C 336.949219 104.90625 349.730469 161.15625 318.53125 198.566406 C 330.597656 215.054688 326.242188 283.660156 234.9375 305.859375 C 157.910156 327.777344 84.023438 313.5 42.902344 274.949219 C 49.042969 288.871094 59.039062 308.429688 71.886719 320.851562 C 57.109375 312.214844 38.40625 294.296875 31.269531 274.164062 C 32.765625 292.367188 43.902344 319.851562 70.53125 337.769531 C 112.007812 337.84375 292.761719 337.769531 292.761719 337.769531 C 292.761719 337.769531 344.589844 312.5 357.722656 267.453125 C 366.148438 216.199219 344.515625 185.714844 344.515625 185.714844 C 344.515625 185.714844 349.730469 155.019531 348.015625 138.3125 C 346.015625 120.394531 336.949219 104.90625 336.949219 104.90625 Z M 284.765625 314.5 C 278.054688 317.855469 278.699219 307.289062 284.765625 306.003906 C 290.832031 304.789062 291.476562 311.285156 284.765625 314.5 Z M 284.765625 314.5 " fill-opacity="0.3" fill-rule="nonzero"/><path fill="#2b0806" d="M 80.453125 84.773438 C 59.324219 86.058594 53.898438 112.898438 53.183594 117.324219 C 53.183594 117.753906 53.183594 117.96875 53.183594 117.96875 C 53.183594 117.96875 53.183594 117.824219 53.113281 117.683594 C 53.113281 117.898438 53.042969 117.96875 53.042969 117.96875 C 53.042969 117.96875 53.042969 117.753906 53.042969 117.324219 C 52.328125 112.898438 47.1875 86.199219 25.769531 84.773438 C 46.972656 83.488281 52.398438 56.644531 53.113281 52.21875 C 53.113281 51.792969 53.113281 51.578125 53.113281 51.578125 C 53.113281 51.578125 53.113281 51.71875 53.183594 51.933594 C 53.183594 51.71875 53.253906 51.578125 53.253906 51.578125 C 53.253906 51.578125 53.253906 51.792969 53.253906 52.21875 C 53.898438 56.644531 59.039062 83.34375 80.453125 84.773438 Z M 29.199219 112.398438 C 29.199219 112.1875 29.199219 112.113281 29.199219 112.113281 C 29.199219 112.113281 29.199219 112.1875 29.199219 112.257812 C 29.199219 112.1875 29.199219 112.113281 29.199219 112.113281 C 29.199219 112.113281 29.199219 112.257812 29.199219 112.398438 C 28.769531 114.542969 26.128906 127.890625 15.632812 128.535156 C 26.199219 129.246094 28.769531 142.453125 29.125 144.667969 C 29.125 144.882812 29.125 144.953125 29.125 144.953125 C 29.125 144.953125 29.125 144.882812 29.125 144.808594 C 29.125 144.882812 29.125 144.953125 29.125 144.953125 C 29.125 144.953125 29.125 144.808594 29.125 144.667969 C 29.484375 142.527344 32.195312 129.175781 42.617188 128.535156 C 32.125 127.890625 29.625 114.613281 29.199219 112.398438 Z M 29.199219 112.398438 " fill-opacity="1" fill-rule="nonzero"/><path fill="#efb07d" d="M 85.378906 138.027344 Z M 85.378906 137.957031 C 85.453125 137.957031 85.453125 137.957031 85.378906 137.957031 C 85.453125 137.957031 85.453125 137.957031 85.378906 137.957031 Z M 324.671875 168.511719 C 341.449219 137.742188 309.539062 74.707031 309.539062 74.707031 C 300.542969 84.988281 290.976562 124.679688 289.546875 133.960938 C 301.683594 137.8125 318.960938 148.738281 324.671875 168.511719 Z M 85.453125 137.957031 C 85.453125 137.957031 85.523438 137.886719 85.453125 137.957031 C 85.523438 137.886719 85.453125 137.957031 85.453125 137.957031 Z M 203.882812 107.402344 C 203.882812 107.402344 170.472656 56.71875 146.988281 38.726562 C 137.066406 44.867188 128.496094 52.578125 120.503906 64.5 C 125.785156 58.144531 131.640625 52.933594 137.851562 49.863281 C 137.851562 49.863281 109.792969 80.703125 98.585938 126.605469 C 106.511719 125.75 125.785156 127.25 125.785156 127.25 C 125.785156 127.25 97.585938 128.605469 75.242188 150.234375 C 66.035156 154.375 58.894531 158.375 46.6875 175.363281 C 42.761719 187.570312 81.3125 242.824219 157.265625 212.058594 C 229.441406 182.789062 209.59375 108.972656 209.59375 108.972656 Z M 331.882812 285.730469 C 328.027344 285.015625 323.386719 286.800781 323.386719 286.800781 C 323.386719 286.800781 325.601562 277.589844 318.746094 276.164062 C 311.894531 274.734375 305.683594 280.304688 305.683594 280.304688 C 305.683594 280.304688 310.324219 269.523438 298.972656 267.597656 C 283.050781 265.027344 220.015625 337.914062 220.015625 337.914062 L 321.746094 337.914062 C 321.746094 337.984375 343.519531 293.511719 331.882812 285.730469 Z M 331.882812 285.730469 " fill-opacity="1" fill-rule="nonzero"/><path fill="#fcc85e" d="M 29.199219 121.464844 C 29.199219 121.394531 29.199219 121.324219 29.199219 121.324219 C 29.199219 121.324219 29.199219 121.324219 29.199219 121.464844 C 29.199219 121.324219 29.199219 121.324219 29.199219 121.324219 C 29.199219 121.324219 29.199219 121.394531 29.199219 121.464844 C 28.984375 122.394531 27.839844 128.25 23.199219 128.535156 C 27.914062 128.890625 28.984375 134.671875 29.125 135.601562 C 29.125 135.671875 29.125 135.742188 29.125 135.742188 C 29.125 135.742188 29.125 135.742188 29.125 135.671875 C 29.125 135.742188 29.125 135.742188 29.125 135.742188 C 29.125 135.742188 29.125 135.671875 29.125 135.601562 C 29.269531 134.671875 30.484375 128.820312 35.050781 128.535156 C 30.484375 128.175781 29.339844 122.464844 29.199219 121.464844 Z M 53.183594 104.761719 C 53.183594 104.761719 53.183594 104.691406 53.183594 104.546875 C 53.183594 104.691406 53.183594 104.761719 53.183594 104.761719 C 53.253906 104.761719 53.253906 104.617188 53.253906 104.40625 C 53.683594 101.761719 56.894531 85.628906 69.675781 84.773438 C 56.753906 83.917969 53.753906 67.855469 53.253906 65.140625 C 53.253906 64.925781 53.253906 64.785156 53.253906 64.785156 C 53.253906 64.785156 53.253906 64.855469 53.253906 65 C 53.253906 64.855469 53.253906 64.785156 53.253906 64.785156 C 53.253906 64.785156 53.253906 64.925781 53.253906 65.140625 C 52.828125 67.78125 49.613281 83.917969 36.835938 84.773438 C 49.757812 85.628906 52.753906 101.691406 53.253906 104.40625 C 53.183594 104.617188 53.183594 104.761719 53.183594 104.761719 Z M 53.183594 104.761719 " fill-opacity="1" fill-rule="nonzero"/><path fill="#ef5454" d="M 203.382812 109.832031 C 193.816406 108.1875 174.898438 105.402344 157.695312 111.828125 C 164.621094 89.914062 147.414062 40.941406 147.414062 40.941406 C 174.472656 51.648438 207.667969 106.261719 203.382812 109.832031 Z M 326.457031 286.085938 C 326.457031 286.085938 331.167969 291.371094 319.460938 310.5 C 307.824219 329.632812 299.972656 337.984375 299.972656 337.984375 L 318.460938 337.984375 C 318.460938 337.984375 338.878906 302.578125 336.808594 289.871094 C 334.664062 277.234375 326.457031 286.085938 326.457031 286.085938 Z M 63.679688 83.058594 C 58.324219 82.558594 51.542969 85.273438 52.898438 102.976562 C 53.042969 103.621094 53.113281 104.046875 53.183594 104.332031 C 53.183594 104.546875 53.183594 104.691406 53.183594 104.691406 C 53.183594 104.691406 53.183594 104.617188 53.183594 104.476562 C 53.183594 104.617188 53.183594 104.691406 53.183594 104.691406 C 53.183594 104.691406 53.183594 104.546875 53.183594 104.332031 C 53.613281 101.691406 56.824219 85.558594 69.601562 84.703125 C 67.320312 84.628906 65.390625 84.058594 63.679688 83.058594 Z M 28.910156 134.316406 C 29.054688 134.957031 29.199219 135.386719 29.199219 135.601562 C 29.199219 135.671875 29.199219 135.742188 29.199219 135.742188 C 29.199219 135.742188 29.199219 135.742188 29.199219 135.671875 C 29.199219 135.742188 29.199219 135.742188 29.199219 135.742188 C 29.199219 135.742188 29.199219 135.671875 29.199219 135.601562 C 29.339844 134.671875 30.554688 128.820312 35.121094 128.535156 C 34.410156 128.460938 33.835938 128.320312 33.265625 128.035156 C 31.339844 127.820312 28.484375 128.460938 28.910156 134.316406 Z M 28.910156 134.316406 " fill-opacity="0.3" fill-rule="nonzero"/><path fill="#2b0806" d="M 201.742188 215.199219 C 202.3125 226.90625 185.25 234.1875 177.828125 217.910156 C 161.050781 234.6875 154.484375 215.199219 154.484375 215.199219 C 123.714844 236.613281 122.429688 289.871094 173.613281 289.871094 C 228.511719 289.871094 222.660156 230.902344 201.742188 215.199219 Z M 284.765625 135.886719 C 309.109375 144.382812 324.671875 168.582031 324.671875 168.582031 C 324.671875 168.582031 320.816406 152.734375 310.75 144.238281 C 301.113281 136.171875 292.332031 130.960938 292.332031 130.960938 C 292.332031 130.960938 304.039062 84.273438 309.464844 74.707031 C 309.539062 74.707031 294.117188 89.839844 284.765625 135.886719 Z M 338.804688 296.582031 C 340.875 279.945312 329.738281 280.660156 326.097656 283.800781 C 329.3125 275.519531 316.390625 269.523438 309.609375 276.519531 C 311.035156 264.527344 299.257812 257.886719 281.554688 272.09375 C 265.5625 285.015625 234.507812 316.496094 216.164062 337.984375 C 222.515625 337.984375 224.941406 337.984375 224.941406 337.984375 C 224.941406 337.984375 253.640625 306.21875 269.917969 289.941406 C 286.195312 273.664062 296.332031 269.023438 302.46875 272.878906 C 306.324219 275.378906 305.753906 283.730469 305.753906 283.730469 C 305.753906 283.730469 314.390625 276.304688 319.816406 279.519531 C 324.242188 282.089844 321.957031 287.085938 319.886719 291.65625 C 326.957031 284.585938 335.523438 287.515625 333.59375 298.078125 C 332.167969 306.359375 321.316406 328.132812 316.390625 337.84375 L 325.601562 337.84375 C 325.601562 337.84375 340.019531 326.0625 346.089844 314.925781 C 346.089844 303.789062 344.589844 305.789062 344.589844 305.789062 C 344.589844 305.789062 340.164062 312.785156 330.238281 323.636719 C 331.953125 320.78125 337.878906 303.863281 338.804688 296.582031 Z M 229.867188 176.933594 C 215.449219 191.355469 215.449219 214.914062 229.867188 229.40625 C 244.289062 243.824219 267.847656 243.824219 282.339844 229.40625 C 296.757812 214.984375 296.757812 191.425781 282.339844 176.933594 C 267.917969 162.441406 244.433594 162.441406 229.867188 176.933594 Z M 86.949219 152.734375 C 72.53125 167.15625 72.53125 190.710938 86.949219 205.203125 C 101.371094 219.625 124.929688 219.625 139.421875 205.203125 C 153.910156 190.785156 153.839844 167.226562 139.421875 152.734375 C 125 138.242188 101.371094 138.3125 86.949219 152.734375 Z M 347.730469 185.074219 C 362.933594 132.316406 329.527344 69.28125 329.527344 69.28125 C 326.027344 62.214844 321.816406 55.003906 316.675781 48.222656 C 310.324219 47.652344 276.769531 76.777344 242.648438 112.472656 C 242.648438 112.472656 227.371094 107.332031 207.667969 106.261719 C 202.242188 94.125 183.324219 63.285156 147.628906 36.015625 C 140.132812 37.085938 101.585938 69.425781 84.59375 136.886719 C 52.042969 154.234375 14.632812 201.136719 24.558594 260.457031 C 25.269531 264.527344 26.84375 270.59375 27.984375 274.234375 L 24.914062 275.449219 C 24.914062 275.449219 0 286.65625 15.277344 312.855469 C 30.554688 339.054688 32.125 338.058594 32.125 338.058594 L 38.835938 338.058594 C 38.835938 338.058594 19.488281 315.140625 16.847656 298.722656 C 14.921875 287.085938 24.34375 281.804688 29.125 280.160156 C 52.898438 328.492188 97.871094 338.128906 97.871094 338.128906 L 115.71875 338.128906 C 115.71875 338.128906 40.976562 320.921875 30.839844 258.601562 C 27.339844 237.042969 31.410156 216.410156 37.621094 199.492188 C 37.621094 199.566406 37.621094 199.636719 37.621094 199.636719 C 60.324219 147.023438 108.867188 130.675781 108.867188 130.675781 C 102.296875 130.746094 95.945312 131.960938 90.164062 134.101562 C 98.65625 103.476562 117.21875 66.996094 147.488281 41.011719 C 167.191406 55.789062 192.890625 93.125 200.457031 106.117188 C 194.246094 106.117188 187.605469 106.617188 181.039062 107.832031 C 181.394531 109.617188 226.726562 114.898438 244.21875 118.109375 C 256.996094 104.832031 292.40625 69.425781 314.320312 54.003906 C 326.882812 71.851562 334.738281 99.265625 339.378906 116.613281 C 340.804688 122.964844 341.804688 128.890625 342.589844 134.457031 C 344.089844 149.523438 343.304688 167.082031 340.664062 186 C 342.660156 188.070312 344.660156 191.570312 345.589844 193.28125 C 345.660156 193.425781 345.730469 193.496094 345.730469 193.640625 C 349.871094 201.707031 355.296875 217.125 356.867188 243.894531 C 359.867188 294.867188 337.023438 316.355469 337.023438 316.355469 C 337.023438 316.355469 339.234375 325.636719 333.453125 331.203125 C 375 289.871094 369.929688 221.410156 347.730469 185.074219 Z M 347.730469 185.074219 " fill-opacity="1" fill-rule="nonzero"/><path fill="#ef5454" d="M 174.042969 282.445312 C 157.265625 282.445312 147.203125 275.664062 142.632812 266.3125 C 170.546875 234.902344 206.738281 245.109375 209.453125 245.824219 C 211.023438 263.457031 202.8125 282.445312 174.042969 282.445312 Z M 174.042969 282.445312 C 157.265625 282.445312 147.203125 275.664062 142.632812 266.3125 C 170.546875 234.902344 206.738281 245.109375 209.453125 245.824219 C 211.023438 263.457031 202.8125 282.445312 174.042969 282.445312 Z M 174.042969 282.445312 " fill-opacity="1" fill-rule="nonzero"/><path fill="#ffffff" d="M 92.304688 164.371094 C 90.519531 157.875 110.007812 146.667969 114.648438 152.875 C 122.714844 163.585938 94.589844 172.792969 92.304688 164.371094 Z M 139.136719 171.582031 C 137.421875 162.800781 125.714844 161.300781 116.503906 170.4375 C 107.296875 179.503906 93.660156 175.933594 89.09375 181.003906 C 84.378906 186.070312 92.445312 207.488281 111.578125 207.488281 C 127.640625 207.488281 143.847656 196.351562 139.136719 171.582031 Z M 235.292969 188.285156 C 233.507812 181.789062 253 170.582031 257.636719 176.792969 C 265.707031 187.429688 237.578125 196.636719 235.292969 188.285156 Z M 282.125 195.496094 C 280.410156 186.714844 268.703125 185.214844 259.496094 194.351562 C 250.285156 203.417969 236.652344 199.851562 232.082031 204.917969 C 227.371094 209.988281 235.4375 231.402344 254.570312 231.402344 C 270.558594 231.402344 286.835938 220.265625 282.125 195.496094 Z M 282.125 195.496094 " fill-opacity="1" fill-rule="nonzero"/></svg>